<?xml version="1.0" encoding="UTF-8"?>
<svg version="1.1" xmlns="http://www.w3.org/2000/svg" width="270" height="246">
<path d="M0 0 C1.13695312 0.3403125 2.27390625 0.680625 3.4453125 1.03125 C29.33384621 9.45213569 49.54147779 28.32532969 62.14794922 52.11816406 C74.00920268 75.44393453 75.60536787 103.9821071 68.12109375 128.9296875 C59.37755818 154.75787207 41.64677362 174.91380136 17.828125 187.703125 C-7.73592255 200.2943723 -35.57792249 201.07699331 -62.6328125 192.90234375 C-75.52934673 188.3186358 -86.86129217 181.13269651 -97 172 C-98.16982422 170.95392578 -98.16982422 170.95392578 -99.36328125 169.88671875 C-117.61820649 152.64070129 -128.32284401 127.7081971 -129.22265625 102.81640625 C-129.90043481 72.88644056 -121.064614 48.84199105 -100.81640625 26.6015625 C-75.85229371 0.52496723 -34.79197333 -11.20572647 0 0 Z M-73.5546875 61.8515625 C-76.05930935 65.07636315 -77.87632586 68.22009129 -79.6875 71.875 C-80.26886719 73.02742188 -80.85023437 74.17984375 -81.44921875 75.3671875 C-86.99157004 88.35052932 -87.14177089 105.00278149 -82.25390625 118.21875 C-75.34447781 133.54433582 -64.20200162 144.60912819 -48.87890625 151.37890625 C-41.6681676 153.86821857 -34.36886717 154.69879312 -26.7980957 155.23022461 C-20.5053555 155.71876875 -14.7167907 156.73758545 -9.7578125 160.8671875 C-5.02097731 166.69190828 -2.53548745 170.8704543 -2.6640625 178.5078125 C-3.26579287 182.97181225 -5.10413992 186.94590635 -7 191 C4.26923461 186.80318159 13.98960534 176.85926352 19 166 C19.70576172 164.52466797 19.70576172 164.52466797 20.42578125 163.01953125 C30.39935435 141.11726774 33.17884995 116.68725661 29 93 C28.87882812 92.29939453 28.75765625 91.59878906 28.6328125 90.87695312 C26.65611063 80.13620059 22.52396512 71.3317469 17 62 C16.34 62 15.68 62 15 62 C14.74992187 61.41992188 14.49984375 60.83984375 14.2421875 60.2421875 C8.9069781 50.61196675 -3.09339034 45.44803655 -13.0625 42.125 C-36.1872009 36.48646625 -57.92477635 44.4053314 -73.5546875 61.8515625 Z " fill="#E00873" transform="translate(162,29)"/>
<path d="M0 0 C0.66 0.33 1.32 0.66 2 1 C0.60587891 1.94359375 0.60587891 1.94359375 -0.81640625 2.90625 C-10.99130249 9.89891376 -18.4552293 15.53824299 -22.17578125 27.77734375 C-23 30 -23 30 -25 31 C-25.65555119 33.52733235 -25.65555119 33.52733235 -26 36 C-26.66 36 -27.32 36 -28 36 C-32.55422816 53.94582763 -33.96256544 74.55588299 -27 92 C-26.71511719 92.79148437 -26.43023437 93.58296875 -26.13671875 94.3984375 C-25.45573642 96.27725028 -24.73072627 98.13996949 -24 100 C-23.32264783 101.99640639 -22.65161065 103.99504414 -22 106 C-21.34 106 -20.68 106 -20 106 C-19.06284078 107.483338 -18.20092526 109.0144669 -17.375 110.5625 C-14.70924461 115.20288902 -11.81182832 118.3167227 -7.63671875 121.625 C-6 123 -6 123 -5 125 C0.52526494 128.68350996 6.41100944 131.93151505 13 133 C16.21398705 134.04237418 18.73570849 135.48577771 21.5 137.375 C30.57097368 143.08012074 40.71189387 144.49684066 51.20043945 145.22924805 C57.67977849 145.7346897 63.39931087 146.79560635 68.4609375 151.0859375 C69.09257812 151.84132812 69.72421875 152.59671875 70.375 153.375 C71.02210938 154.12523437 71.66921875 154.87546875 72.3359375 155.6484375 C76.09502197 160.96057095 76.54237057 165.67618989 76 172 C74.58130271 177.67478914 70.65029328 180.74434207 66.125 184.1875 C53.79978297 191.33612588 35.2926644 189.48691832 22 186 C-3.26358636 178.7287967 -25.14158586 161.98675783 -38.09863281 139.05566406 C-51.23446956 114.90116461 -55.42356818 86.81288776 -48 60 C-40.33449866 35.10732572 -23.8311414 15.46338549 -2.296875 1.2109375 C-1.53890625 0.81132813 -0.7809375 0.41171875 0 0 Z " fill="#2F42EB" transform="translate(84,38)"/>
<path d="M0 0 C0.87938232 -0.00128906 1.75876465 -0.00257812 2.66479492 -0.00390625 C7.75978463 0.08168296 12.04963148 0.80673257 16.9375 2.375 C18.26563429 2.5623618 19.59959451 2.71734724 20.9375 2.8125 C24.98053274 3.24260987 28.23333806 4.69764365 31.9375 6.375 C34.71638613 7.06640522 34.71638613 7.06640522 36.9375 7.375 C36.9375 8.035 36.9375 8.695 36.9375 9.375 C37.55625 9.519375 38.175 9.66375 38.8125 9.8125 C40.9375 10.375 40.9375 10.375 42.9375 11.375 C42.9375 12.035 42.9375 12.695 42.9375 13.375 C43.47375 13.6225 44.01 13.87 44.5625 14.125 C50.6890373 17.34949332 55.33343088 21.43272077 60.1875 26.3125 C60.81140625 26.92029297 61.4353125 27.52808594 62.078125 28.15429688 C65.31936331 31.39204247 67.52500919 33.92565396 68.9375 38.375 C69.5975 39.2 70.2575 40.025 70.9375 40.875 C73.67671996 44.29902494 74.9375 46.98101401 74.9375 51.375 C75.5975 51.375 76.2575 51.375 76.9375 51.375 C76.9375 54.015 76.9375 56.655 76.9375 59.375 C77.5975 59.375 78.2575 59.375 78.9375 59.375 C79.70128724 90.90178707 73.08569444 117.3908115 50.95092773 140.88525391 C35.60104932 156.57302941 12.46869638 169.60041524 -9.92504883 170.48852539 C-11.45681763 170.48067017 -11.45681763 170.48067017 -13.01953125 170.47265625 C-14.13134766 170.46943359 -15.24316406 170.46621094 -16.38867188 170.46289062 C-17.53916016 170.45451172 -18.68964844 170.44613281 -19.875 170.4375 C-21.04482422 170.43298828 -22.21464844 170.42847656 -23.41992188 170.42382812 C-26.30083358 170.4120693 -29.18164044 170.39563426 -32.0625 170.375 C-32.0625 170.045 -32.0625 169.715 -32.0625 169.375 C-30.93972656 169.33761719 -29.81695312 169.30023438 -28.66015625 169.26171875 C-16.1746865 168.75287591 -7.07229608 167.85899587 1.9375 158.375 C1.6075 159.695 1.2775 161.015 0.9375 162.375 C14.20453886 155.98716648 22.92925958 145.31025403 28.125 131.6875 C28.46740723 130.80030273 28.80981445 129.91310547 29.16259766 128.99902344 C38.6417379 103.90100102 39.68632853 74.90349663 30.9375 49.375 C29.28870514 45.73039325 27.36153875 42.29469587 25.328125 38.8515625 C23.9375 36.375 23.9375 36.375 23.9375 34.375 C23.2775 34.375 22.6175 34.375 21.9375 34.375 C21.1125 33.364375 20.2875 32.35375 19.4375 31.3125 C11.67513078 22.05377045 -0.12515893 16.07785215 -12.0625 14.375 C-25.57239998 13.54397809 -37.04349396 14.59336227 -49.28515625 20.703125 C-49.87167969 20.92484375 -50.45820312 21.1465625 -51.0625 21.375 C-51.7225 21.045 -52.3825 20.715 -53.0625 20.375 C-52.44761719 20.06046875 -51.83273438 19.7459375 -51.19921875 19.421875 C-50.39097656 18.99390625 -49.58273438 18.5659375 -48.75 18.125 C-47.94949219 17.70734375 -47.14898437 17.2896875 -46.32421875 16.859375 C-43.91885473 15.28072504 -42.72054755 13.69244399 -41.0625 11.375 C-38.6875 10.3125 -38.6875 10.3125 -36.0625 9.375 C-35.216875 8.83875 -34.37125 8.3025 -33.5 7.75 C-31.0625 6.375 -31.0625 6.375 -27.0625 6.375 C-27.0625 5.715 -27.0625 5.055 -27.0625 4.375 C-18.00922941 1.50663704 -9.52637843 -0.01344228 0 0 Z " fill="#F7940B" transform="translate(155.0625,56.625)"/>
<path d="M0 0 C0.66 0.33 1.32 0.66 2 1 C0.60587891 1.94359375 0.60587891 1.94359375 -0.81640625 2.90625 C-10.99130249 9.89891376 -18.4552293 15.53824299 -22.17578125 27.77734375 C-23 30 -23 30 -25 31 C-25.65555119 33.52733235 -25.65555119 33.52733235 -26 36 C-26.66 36 -27.32 36 -28 36 C-32.55422816 53.94582763 -33.96256544 74.55588299 -27 92 C-26.71511719 92.79148437 -26.43023437 93.58296875 -26.13671875 94.3984375 C-25.45573642 96.27725028 -24.73072627 98.13996949 -24 100 C-23.32264783 101.99640639 -22.65161065 103.99504414 -22 106 C-21.34 106 -20.68 106 -20 106 C-19.67 107.32 -19.34 108.64 -19 110 C-19.66 110 -20.32 110 -21 110 C-21 109.01 -21 108.02 -21 107 C-22.485 106.505 -22.485 106.505 -24 106 C-24.33 104.35 -24.66 102.7 -25 101 C-26.485 100.505 -26.485 100.505 -28 100 C-28 98.68 -28 97.36 -28 96 C-28.639375 95.05125 -29.27875 94.1025 -29.9375 93.125 C-32.09736208 89.8524817 -32.5827625 87.83858497 -33 84 C-33.31478446 82.66216607 -33.64587656 81.32796291 -34 80 C-34.33333333 78.66666667 -34.66666667 77.33333333 -35 76 C-35.17781006 75.40606445 -35.35562012 74.81212891 -35.53881836 74.20019531 C-36.07630358 71.63597253 -36.01577886 69.41266258 -35.87890625 66.796875 C-35.83056641 65.8171875 -35.78222656 64.8375 -35.73242188 63.828125 C-35.67634766 62.81234375 -35.62027344 61.7965625 -35.5625 60.75 C-35.51029297 59.71875 -35.45808594 58.6875 -35.40429688 57.625 C-35.27484366 55.08300961 -35.13988672 52.54143407 -35 50 C-34.34 50 -33.68 50 -33 50 C-33.66 49.01 -34.32 48.02 -35 47 C-35.99 47 -36.98 47 -38 47 C-38.0825 47.61875 -38.165 48.2375 -38.25 48.875 C-38.62125 49.926875 -38.62125 49.926875 -39 51 C-39.639375 51.28875 -40.27875 51.5775 -40.9375 51.875 C-43.2494013 52.863706 -43.2494013 52.863706 -44.12109375 55.546875 C-45.15475862 59.60802943 -45.22287249 63.21165479 -45.125 67.375 C-45.11146484 68.47908203 -45.11146484 68.47908203 -45.09765625 69.60546875 C-45.07430144 71.4037888 -45.03843836 73.20193911 -45 75 C-46.485 75.495 -46.485 75.495 -48 76 C-47.8246875 76.68835938 -47.649375 77.37671875 -47.46875 78.0859375 C-46.9327838 81.4178607 -47.16075118 84.27106281 -47.5 87.625 C-48.01596793 92.39055793 -48.01596793 92.39055793 -47 97 C-46.66666667 98.33333333 -46.33333333 99.66666667 -46 101 C-45.33847444 103.3347961 -44.67258667 105.66836622 -44 108 C-44.66 108 -45.32 108 -46 108 C-45.67 110.31 -45.34 112.62 -45 115 C-44.34 115 -43.68 115 -43 115 C-43 117.31 -43 119.62 -43 122 C-42.34 122 -41.68 122 -41 122 C-40.67 123.98 -40.34 125.96 -40 128 C-39.34 128 -38.68 128 -38 128 C-37.80664062 128.66386719 -37.61328125 129.32773438 -37.4140625 130.01171875 C-35.14002087 137.72319656 -32.81658164 143.53564043 -28 150 C-28.33 150.66 -28.66 151.32 -29 152 C-47.43784315 130.73886211 -52.52124454 104.4828139 -51 77 C-48.79064272 51.25028036 -35.11462628 28.0288283 -16 11 C-10.93442199 7.01591592 -5.71338577 3.01215917 0 0 Z " fill="#6C3BED" transform="translate(84,38)"/>
<path d="M0 0 C1.13695312 0.3403125 2.27390625 0.680625 3.4453125 1.03125 C29.34070199 9.4543657 49.52869492 28.32611244 62.14794922 52.1159668 C67.62289749 62.87331105 70.64331392 73.99231576 72 86 C71.01 86.495 71.01 86.495 70 87 C70 84.36 70 81.72 70 79 C69.34 79 68.68 79 68 79 C67.63648438 78.11248047 67.63648438 78.11248047 67.265625 77.20703125 C65.29178899 72.55333327 63.25442343 68.90530812 60 65 C59.76796875 64.27296875 59.5359375 63.5459375 59.296875 62.796875 C57.42383511 58.75742753 54.52758849 56.09310569 51.375 53 C50.78332031 52.39671875 50.19164062 51.7934375 49.58203125 51.171875 C45.84494007 47.45899823 42.09319606 44.61464876 37.49072266 42.04296875 C36.99878418 41.69878906 36.5068457 41.35460937 36 41 C36 40.34 36 39.68 36 39 C34.02 38.34 32.04 37.68 30 37 C30 36.34 30 35.68 30 35 C28.9790625 35.0928125 28.9790625 35.0928125 27.9375 35.1875 C24.87941801 34.99230328 22.90921611 34.07975456 20.16796875 32.796875 C16.45240319 31.4311536 12.57618726 30.99452455 8.671875 30.4296875 C6 30 6 30 3 29 C0.43365139 28.77281504 -2.11678107 28.58391816 -4.6875 28.4375 C-5.7403418 28.37272461 -5.7403418 28.37272461 -6.81445312 28.30664062 C-8.54275206 28.2008264 -10.2713511 28.09993419 -12 28 C-12 27.67 -12 27.34 -12 27 C2.4522369 26.54361357 18.27865145 26.15065728 31 34 C31 34.66 31 35.32 31 36 C32.65 35.67 34.3 35.34 36 35 C36 35.66 36 36.32 36 37 C36.66 37 37.32 37 38 37 C39.60339848 33.88228073 40.18974141 32.60988311 39.125 29.1875 C38.75375 28.465625 38.3825 27.74375 38 27 C38.66 27 39.32 27 40 27 C34.71282653 19.6912602 27.63469531 15.5032598 20 11 C19.19820313 10.51402344 18.39640625 10.02804688 17.5703125 9.52734375 C-4.10162493 -2.46548995 -32.36791841 -4.44050292 -56 2 C-61.62547842 3.85570761 -67.05485594 5.70323729 -72 9 C-74.1875 8.625 -74.1875 8.625 -76 8 C-53.12072881 -3.40163016 -24.84882133 -8.00325674 0 0 Z " fill="#F96DA4" transform="translate(162,29)"/>
<path d="M0 0 C0.33 0 0.66 0 1 0 C1.76378724 31.52678707 -4.85180556 58.0158115 -26.98657227 81.51025391 C-42.33645068 97.19802941 -65.46880362 110.22541524 -87.86254883 111.11352539 C-89.39431763 111.10567017 -89.39431763 111.10567017 -90.95703125 111.09765625 C-92.06884766 111.09443359 -93.18066406 111.09121094 -94.32617188 111.08789062 C-95.47666016 111.07951172 -96.62714844 111.07113281 -97.8125 111.0625 C-99.56723633 111.05573242 -99.56723633 111.05573242 -101.35742188 111.04882812 C-104.23833358 111.0370693 -107.11914044 111.02063426 -110 111 C-110 110.67 -110 110.34 -110 110 C-108.87722656 109.96261719 -107.75445312 109.92523438 -106.59765625 109.88671875 C-94.1121865 109.37787591 -85.00979608 108.48399587 -76 99 C-76.495 100.98 -76.495 100.98 -77 103 C-66.90905923 98.14139889 -60.37176618 91.07493971 -54 82 C-54 88.07839454 -60.24285316 93.3421255 -64.3125 97.5625 C-67 100 -67 100 -69 100 C-69 100.99 -69 101.98 -69 103 C-55.25342929 101.03620418 -43.00928902 93.31312518 -33 84 C-32.11441406 83.18273437 -31.22882813 82.36546875 -30.31640625 81.5234375 C-23.92061248 75.38423575 -17.40620076 69.05340492 -16 60 C-15.34 60 -14.68 60 -14 60 C-13.9071875 58.7934375 -13.9071875 58.7934375 -13.8125 57.5625 C-12.73463007 52.8364549 -10.48408581 49.12486573 -8 45 C-7.34 45 -6.68 45 -6 45 C-5.35170438 42.29223506 -4.70629398 39.58383555 -4.0625 36.875 C-3.88009766 36.11445313 -3.69769531 35.35390625 -3.50976562 34.5703125 C-1.60612459 26.54040852 -0.76194908 18.86919799 -0.4375 10.625 C-0.37272461 9.09166016 -0.37272461 9.09166016 -0.30664062 7.52734375 C-0.20112208 5.01834712 -0.09900787 2.50926057 0 0 Z " fill="#FEFADF" transform="translate(233,116)"/>
<path d="M0 0 C0.33 0 0.66 0 1 0 C1.05828635 4.20827473 1.093693 8.41644489 1.125 12.625 C1.15013672 14.40970703 1.15013672 14.40970703 1.17578125 16.23046875 C1.18222656 17.38417969 1.18867188 18.53789062 1.1953125 19.7265625 C1.20578613 20.78439941 1.21625977 21.84223633 1.22705078 22.93212891 C0.98195054 26.24388121 0.14346458 28.89427341 -1 32 C-1.15984375 32.83015625 -1.3196875 33.6603125 -1.484375 34.515625 C-3.07083483 42.1594769 -7.05056844 49.37676932 -10.9296875 56.0859375 C-12.17697199 58.31648276 -13.14575427 60.5925802 -14 63 C-10.78992158 63.87207822 -8.21000853 64.54728953 -5.08056641 63.13183594 C-3.07404516 61.79964162 -1.19386917 60.37857657 0.6875 58.875 C1.33783203 58.38773438 1.98816406 57.90046875 2.65820312 57.3984375 C6.32807169 54.5852457 9.22715305 51.73537543 12 48 C13.66666667 46.33333333 15.33333333 44.66666667 17 43 C19.79064747 39.68966618 19.79064747 39.68966618 22 36 C22.66 36 23.32 36 24 36 C22.57411377 40.43969122 20.1544822 43.4211712 17 46.75 C16.50870605 47.27368164 16.01741211 47.79736328 15.51123047 48.33691406 C5.72483736 58.64864554 -8.2074066 72.57596363 -23.10546875 74.234375 C-25.0625 74.25 -25.0625 74.25 -28 74 C-28 71 -28 71 -26.49609375 69.4921875 C-25.81675781 68.95851563 -25.13742188 68.42484375 -24.4375 67.875 C-17.98173587 62.42651822 -13.05376197 56.71893146 -10.7421875 48.5 C-9.85011505 45.49512438 -8.67963893 42.6537266 -7.5 39.75 C-2.51467687 26.77019473 -1.16484776 13.74520357 0 0 Z " fill="#F9D60F" transform="translate(192,145)"/>
<path d="M0 0 C1.22787164 3.68361492 0.62220272 4.25825464 -0.9375 7.6875 C-3.8174986 15.0507954 -3.35071146 22.23563805 -3 30 C-3.99 30.33 -4.98 30.66 -6 31 C-5.73703125 32.03253906 -5.73703125 32.03253906 -5.46875 33.0859375 C-4.9327838 36.4178607 -5.16075118 39.27106281 -5.5 42.625 C-6.01596793 47.39055793 -6.01596793 47.39055793 -5 52 C-4.66666667 53.33333333 -4.33333333 54.66666667 -4 56 C-3.33847444 58.3347961 -2.67258667 60.66836622 -2 63 C-2.66 63 -3.32 63 -4 63 C-3.67 65.31 -3.34 67.62 -3 70 C-2.34 70 -1.68 70 -1 70 C-1 72.31 -1 74.62 -1 77 C-0.34 77 0.32 77 1 77 C1.33 78.98 1.66 80.96 2 83 C2.66 83 3.32 83 4 83 C4.29003906 83.99580078 4.29003906 83.99580078 4.5859375 85.01171875 C6.85997913 92.72319656 9.18341836 98.53564043 14 105 C13.67 105.66 13.34 106.32 13 107 C-5.43784315 85.73886211 -10.52124454 59.4828139 -9 32 C-8.01808854 20.55597279 -4.6905566 10.42851903 0 0 Z " fill="#5159F5" transform="translate(42,83)"/>
<path d="M0 0 C0.33 0.66 0.66 1.32 1 2 C-0.31921054 4.88033935 -1.7752363 7.63660706 -3.28710938 10.41796875 C-9.79087718 22.78447591 -10.17965944 38.87119197 -6.375 52.1875 C-2.88094946 61.63482829 2.30288542 68.73172209 9.2421875 75.96875 C11 78 11 78 11 80 C4.87702516 79.61731407 0.1716037 75.1716037 -4 71 C-4.52734375 69.1171875 -4.52734375 69.1171875 -4.9375 66.875 C-6.52557765 58.66285172 -6.52557765 58.66285172 -11.1875 52 C-11.785625 51.67 -12.38375 51.34 -13 51 C-12.01 51 -11.02 51 -10 51 C-10.10828125 50.14341797 -10.10828125 50.14341797 -10.21875 49.26953125 C-12.22050546 31.78197317 -10.81778722 16.0136623 -1 1 C-0.67 0.67 -0.34 0.34 0 0 Z " fill="#D974BB" transform="translate(86,92)"/>
<path d="M0 0 C0.33 0 0.66 0 1 0 C1.0093457 0.64437012 1.01869141 1.28874023 1.02832031 1.95263672 C1.08265044 4.92747767 1.16616979 7.90084977 1.25 10.875 C1.26417969 11.88820313 1.27835938 12.90140625 1.29296875 13.9453125 C1.4951438 20.25317393 2.44208349 25.07286896 5.24902344 30.75048828 C6.17401284 33.52124651 5.77477546 35.22341529 5 38 C5.99 38.33 6.98 38.66 8 39 C8.33 39.99 8.66 40.98 9 42 C9.99 42.33 10.98 42.66 12 43 C11.78472656 43.72832031 11.56945313 44.45664063 11.34765625 45.20703125 C10.92118705 48.63316018 11.6300071 49.80236906 13.4375 52.6875 C16 56.84196185 16 56.84196185 16 59 C16.66 59 17.32 59 18 59 C18.165 59.763125 18.33 60.52625 18.5 61.3125 C20.47211222 64.84586772 22.37353761 65.20015925 26.125 66.32421875 C28 67 28 67 30 69 C30.309375 69.78375 30.61875 70.5675 30.9375 71.375 C31.99016897 73.97571158 33.23678745 75.83605732 35 78 C29.45980789 75.3325001 25.22276174 72.52438758 21 68 C20.40574219 67.37609375 19.81148437 66.7521875 19.19921875 66.109375 C15.66087422 62.2706741 13.17658348 59.22925993 12 54 C11.34 54 10.68 54 10 54 C7.61089536 49.4493245 5.6747457 44.85044274 4 40 C3.46632812 38.65808594 3.46632812 38.65808594 2.921875 37.2890625 C-1.32130324 25.18704007 -0.37113419 12.65567575 0 0 Z " fill="#9310A6" transform="translate(52,90)"/>
<path d="M0 0 C0.79148438 -0.02578125 1.58296875 -0.0515625 2.3984375 -0.078125 C4.625 0.25 4.625 0.25 6.38671875 1.51953125 C8.15114417 3.98527403 8.09957602 6.348655 7.96875 9.30859375 C7.625 11.25 7.625 11.25 6.0625 13.75 C2.7011612 15.81851618 0.50540089 15.73505011 -3.375 15.25 C-5.75 14.125 -5.75 14.125 -7.375 12.25 C-8.57862584 8.55888074 -8.71918291 6.95401049 -7 3.4375 C-4.59374422 0.19830953 -4.01772209 0.07801402 0 0 Z " fill="#5C5C5C" transform="translate(157.375,118.75)"/>
<path d="M0 0 C1.17369141 -0.02513672 1.17369141 -0.02513672 2.37109375 -0.05078125 C5.06671744 0.39608685 5.90113482 1.18595257 7.5625 3.3125 C8.87702598 6.78660437 8.66175431 8.06672742 7.25 11.5625 C5.5625 14.3125 5.5625 14.3125 3.5625 15.3125 C-2.65606639 15.88829318 -2.65606639 15.88829318 -5.8125 13.5625 C-7.45759172 11.2846807 -8.26849388 10.10110101 -8.4375 7.3125 C-6.86711797 2.23895805 -5.43937361 0.02679494 0 0 Z " fill="#5B5B5B" transform="translate(109.4375,118.6875)"/>
<path d="M0 0 C2.91781637 2.27954404 2.97820387 3.82563093 3.4375 7.5 C3 11 3 11 1.4375 13.4375 C-1.94217804 15.60396028 -4.05983987 15.56288002 -8 15 C-10.4375 13.4375 -10.4375 13.4375 -12 11 C-12.55802097 7.09385318 -12.58392818 4.94888329 -10.5 1.5625 C-6.72171101 -0.79893062 -4.42209561 -0.56153595 0 0 Z " fill="#383838" transform="translate(138,119)"/>
<path d="M0 0 C0.66 0.33 1.32 0.66 2 1 C0.60587891 1.94359375 0.60587891 1.94359375 -0.81640625 2.90625 C-10.99130249 9.89891376 -18.4552293 15.53824299 -22.17578125 27.77734375 C-23 30 -23 30 -25 31 C-25.65555119 33.52733235 -25.65555119 33.52733235 -26 36 C-26.66 36 -27.32 36 -28 36 C-28 36.66 -28 37.32 -28 38 C-28.99 38 -29.98 38 -31 38 C-31 37.01 -31 36.02 -31 35 C-32.98 35.99 -34.96 36.98 -37 38 C-35.67042392 32.91093295 -33.30675044 29.49905205 -29.875 25.625 C-29.38 25.05628174 -28.885 24.48756348 -28.375 23.90161133 C-20.11377198 14.48868038 -11.20317192 5.89741077 0 0 Z " fill="#AD8EF3" transform="translate(84,38)"/>
<path d="M0 0 C32.58131795 2.97804258 32.58131795 2.97804258 40.25 11.4375 C44.81713165 17.09261327 45.58477602 21.8527375 45 29 C44.4375 31.875 44.4375 31.875 43 34 C37.20689655 37 37.20689655 37 34 37 C34 37.66 34 38.32 34 39 C33.01 39.33 32.02 39.66 31 40 C30.34 39.34 29.68 38.68 29 38 C29.61875 37.9175 30.2375 37.835 30.875 37.75 C31.57625 37.5025 32.2775 37.255 33 37 C33.309375 36.34 33.61875 35.68 33.9375 35 C34.288125 34.34 34.63875 33.68 35 33 C37.625 32.25 37.625 32.25 40 32 C40.10834375 27.55790643 39.70173653 23.38585329 39 19 C38.34 19 37.68 19 37 19 C37.103125 17.7625 37.20625 16.525 37.3125 15.25 C37.30650368 11.85608315 37.24821343 11.27741501 34.875 8.625 C28.94623319 5.27395789 23.22149433 4.56229194 16.5625 4 C10.78929878 3.5102076 5.52499448 2.78465501 0 1 C0 0.67 0 0.34 0 0 Z " fill="#7787E5" transform="translate(115,181)"/>
<path d="M0 0 C13.83449745 8.95379911 22.09082132 27.34271065 26 43 C26.80895158 47.31905757 27.46540922 51.63886469 28 56 C27.01 56.495 27.01 56.495 26 57 C26 54.36 26 51.72 26 49 C25.34 49 24.68 49 24 49 C22.62749639 45.75744348 21.28028452 42.50496348 19.9375 39.25 C19.54755859 38.32960937 19.15761719 37.40921875 18.75585938 36.4609375 C18.39169922 35.57148437 18.02753906 34.68203125 17.65234375 33.765625 C17.31195068 32.94868164 16.97155762 32.13173828 16.62084961 31.29003906 C15.92439895 28.72114121 16.34199333 27.51379372 17 25 C16.34 24.34 15.68 23.68 15 23 C14.01 23 13.02 23 12 23 C12.66 22.67 13.32 22.34 14 22 C13.67 20.35 13.34 18.7 13 17 C11.68 17 10.36 17 9 17 C8.67 16.34 8.34 15.68 8 15 C7.34 14.67 6.68 14.34 6 14 C6.33 13.67 6.66 13.34 7 13 C6.34 12.67 5.68 12.34 5 12 C5 10.35 5 8.7 5 7 C4.401875 6.71125 3.80375 6.4225 3.1875 6.125 C1 5 1 5 -2 3 C-1.34 2.01 -0.68 1.02 0 0 Z " fill="#F887B8" transform="translate(206,59)"/>
<path d="M0 0 C0.33 0 0.66 0 1 0 C1.7482849 7.0285332 2.12446842 13.93295955 2 21 C2 21.66 2 22.32 2 23 C2.66 23 3.32 23 4 23 C4.50471197 24.76949612 5.00360685 26.54065223 5.5 28.3125 C5.7784375 29.29863281 6.056875 30.28476563 6.34375 31.30078125 C7 34 7 34 7 37 C5.66666667 36.33333333 4.33333333 35.66666667 3 35 C1.948125 34.566875 0.89625 34.13375 -0.1875 33.6875 C-3 32 -3 32 -3.875 29.3125 C-3.936875 28.1678125 -3.936875 28.1678125 -4 27 C-4.66 27 -5.32 27 -6 27 C-6.33 26.01 -6.66 25.02 -7 24 C-6.34 24 -5.68 24 -5 24 C-5 23.34 -5 22.68 -5 22 C-4.34 21.67 -3.68 21.34 -3 21 C-2.53193355 18.66255706 -2.17330206 16.30260921 -1.875 13.9375 C-1.62363281 12.00197266 -1.62363281 12.00197266 -1.3671875 10.02734375 C-1.24601562 9.02832031 -1.12484375 8.02929688 -1 7 C-1.66 6.67 -2.32 6.34 -3 6 C-2.34 6 -1.68 6 -1 6 C-0.67 4.02 -0.34 2.04 0 0 Z " fill="#C00271" transform="translate(74,122)"/>
<path d="M0 0 C0.91289795 -0.00128906 1.8257959 -0.00257812 2.76635742 -0.00390625 C9.28082334 0.10388222 9.28082334 0.10388222 12.6875 2.375 C11.61435547 2.39687378 11.61435547 2.39687378 10.51953125 2.41918945 C7.24167564 2.49419213 3.96478083 2.59067955 0.6875 2.6875 C-0.43785156 2.71005859 -1.56320313 2.73261719 -2.72265625 2.75585938 C-9.28814708 2.96703013 -14.31029197 3.70507584 -20.3125 6.375 C-21.61892131 6.77065719 -22.93156222 7.14644227 -24.25 7.5 C-27.16377185 8.06439088 -27.16377185 8.06439088 -28.3125 9.375 C-26.50652344 9.44847656 -26.50652344 9.44847656 -24.6640625 9.5234375 C-23.08851802 9.59846343 -21.51299834 9.67401133 -19.9375 9.75 C-19.1434375 9.7809375 -18.349375 9.811875 -17.53125 9.84375 C-11.5390625 10.1484375 -11.5390625 10.1484375 -9.3125 12.375 C-10.983125 12.32279297 -10.983125 12.32279297 -12.6875 12.26953125 C-23.28376506 12.0453211 -32.98675358 13.0116139 -43.3125 15.375 C-41.6015625 11.5078125 -41.6015625 11.5078125 -39 10.3125 C-38.113125 10.003125 -37.22625 9.69375 -36.3125 9.375 C-35.466875 8.83875 -34.62125 8.3025 -33.75 7.75 C-31.3125 6.375 -31.3125 6.375 -27.3125 6.375 C-27.3125 5.715 -27.3125 5.055 -27.3125 4.375 C-18.16841316 1.47786358 -9.62226866 -0.01331456 0 0 Z " fill="#EE5114" transform="translate(155.3125,56.625)"/>
<path d="M0 0 C0.33 0.99 0.66 1.98 1 3 C0.01 3.495 0.01 3.495 -1 4 C-0.67 6.64 -0.34 9.28 0 12 C-2.97 11.505 -2.97 11.505 -6 11 C-6.0928125 11.86625 -6.0928125 11.86625 -6.1875 12.75 C-7.33384174 15.92448483 -9.25956842 17.12848575 -12 19 C-12.66 19 -13.32 19 -14 19 C-13.95359375 19.60328125 -13.9071875 20.2065625 -13.859375 20.828125 C-13.56248734 27.40206603 -13.56248734 27.40206603 -15.875 30.5625 C-18 32 -18 32 -20 32 C-20.12117188 32.84304687 -20.24234375 33.68609375 -20.3671875 34.5546875 C-20.53476562 35.65039062 -20.70234375 36.74609375 -20.875 37.875 C-21.03742187 38.96554688 -21.19984375 40.05609375 -21.3671875 41.1796875 C-22 44 -22 44 -24 46 C-23.88544319 44.08268082 -23.75793742 42.1661325 -23.625 40.25 C-23.55539063 39.18265625 -23.48578125 38.1153125 -23.4140625 37.015625 C-23.0271777 34.19793568 -22.44313834 32.4169634 -21 30 C-20.34 30 -19.68 30 -19 30 C-19 28.35 -19 26.7 -19 25 C-18.01 24.67 -17.02 24.34 -16 24 C-15.9175 22.96875 -15.835 21.9375 -15.75 20.875 C-14.2569076 13.16068925 -8.3583236 7.50135894 -3 2 C-2.01 1.34 -1.02 0.68 0 0 Z " fill="#D3057F" transform="translate(77,44)"/>
<path d="M0 0 C0.33 0.66 0.66 1.32 1 2 C0.67 2.66 0.34 3.32 0 4 C0.66 4 1.32 4 2 4 C1.67 7.3 1.34 10.6 1 14 C0.236875 13.835 -0.52625 13.67 -1.3125 13.5 C-4.03596236 12.90854604 -4.03596236 12.90854604 -7 13 C-7.33 14.32 -7.66 15.64 -8 17 C-9.32 17.33 -10.64 17.66 -12 18 C-9.43933054 6.11266456 -9.43933054 6.11266456 -4 2 C-1.6875 0.6875 -1.6875 0.6875 0 0 Z " fill="#6454F9" transform="translate(53,72)"/>
<path d="M0 0 C0.33 0 0.66 0 1 0 C1.05828635 4.20827473 1.093693 8.41644489 1.125 12.625 C1.15013672 14.40970703 1.15013672 14.40970703 1.17578125 16.23046875 C1.18222656 17.38417969 1.18867188 18.53789062 1.1953125 19.7265625 C1.20578613 20.78439941 1.21625977 21.84223633 1.22705078 22.93212891 C0.98184413 26.24531894 0.14350861 28.89260406 -1 32 C-1.34060811 33.66519519 -1.67558396 35.33157466 -2 37 C-2.33 37.66 -2.66 38.32 -3 39 C-3.66 39 -4.32 39 -5 39 C-5.2475 39.825 -5.495 40.65 -5.75 41.5 C-7.18704811 45.52373471 -9.02354515 49.21979024 -11 53 C-12.35572122 48.93283633 -11.13206916 47.64108499 -9.3125 43.8125 C-2.95029989 29.65826735 -1.19322705 15.32354731 0 0 Z " fill="#FBE6A0" transform="translate(192,145)"/>
<path d="M0 0 C1.22787164 3.68361492 0.62220272 4.25825464 -0.9375 7.6875 C-3.8174986 15.0507954 -3.35071146 22.23563805 -3 30 C-3.99 30.33 -4.98 30.66 -6 31 C-6.66 38.59 -7.32 46.18 -8 54 C-8.33 54 -8.66 54 -9 54 C-9.53374028 34.38299193 -8.08676978 17.9793231 0 0 Z " fill="#BCBBFB" transform="translate(42,83)"/>
<path d="M0 0 C0.33 0 0.66 0 1 0 C1.24234375 1.18335938 1.4846875 2.36671875 1.734375 3.5859375 C3.50977706 12.03249316 5.29045306 20.14681021 9 28 C9.99 28 10.98 28 12 28 C12.19335938 28.66386719 12.38671875 29.32773438 12.5859375 30.01171875 C14.85997913 37.72319656 17.18341836 43.53564043 22 50 C21.67 50.66 21.34 51.32 21 52 C8.75059973 37.87491032 -0.32047509 18.90803009 0 0 Z " fill="#E6E8FD" transform="translate(34,138)"/>
<path d="M0 0 C2.64 0 5.28 0 8 0 C7.60619797 2.75661421 7.1454405 3.85877516 5.11328125 5.83203125 C-1.502844 12.61936861 -3.2441814 23.02105774 -5 32 C-6.32 31.34 -7.64 30.68 -9 30 C-9 27.03 -9 24.06 -9 21 C-8.34 21.33 -7.68 21.66 -7 22 C-6.896875 21.401875 -6.79375 20.80375 -6.6875 20.1875 C-5.89000556 17.65001769 -4.85812429 16.85812429 -3 15 C-0.41896059 11.14520089 1.43932133 7.71036245 0.75 3 C0.5025 2.01 0.255 1.02 0 0 Z " fill="#CA1175" transform="translate(81,88)"/>
<path d="M0 0 C0.33 0 0.66 0 1 0 C1.0093457 0.64437012 1.01869141 1.28874023 1.02832031 1.95263672 C1.08265044 4.92747767 1.16616979 7.90084977 1.25 10.875 C1.26417969 11.88820313 1.27835938 12.90140625 1.29296875 13.9453125 C1.4951438 20.25317393 2.44208349 25.07286896 5.24902344 30.75048828 C6.17401284 33.52124651 5.77477546 35.22341529 5 38 C5.99 38.33 6.98 38.66 8 39 C8.33 39.99 8.66 40.98 9 42 C9.99 42.33 10.98 42.66 12 43 C11.67 44.98 11.34 46.96 11 49 C10.34 49 9.68 49 9 49 C8.04375312 47.42791775 7.11130088 45.84136502 6.1875 44.25 C5.66542969 43.36828125 5.14335938 42.4865625 4.60546875 41.578125 C0.29327256 31.96748824 -0.41734096 22.66945706 -0.1875 12.25 C-0.17396484 11.0640625 -0.16042969 9.878125 -0.14648438 8.65625 C-0.11157409 5.77033307 -0.06254539 2.88542736 0 0 Z " fill="#A30BA0" transform="translate(52,90)"/>
<path d="M0 0 C14.4522369 -0.45638643 30.27865145 -0.84934272 43 7 C43 7.66 43 8.32 43 9 C44.65 8.67 46.3 8.34 48 8 C48 9.32 48 10.64 48 12 C46.02 11.34 44.04 10.68 42 10 C42 9.34 42 8.68 42 8 C41.319375 8.061875 40.63875 8.12375 39.9375 8.1875 C36.87941801 7.99230328 34.90921611 7.07975456 32.16796875 5.796875 C28.45240319 4.4311536 24.57618726 3.99452455 20.671875 3.4296875 C18 3 18 3 15 2 C12.43365139 1.77281504 9.88321893 1.58391816 7.3125 1.4375 C6.61060547 1.39431641 5.90871094 1.35113281 5.18554688 1.30664062 C3.45724794 1.2008264 1.7286489 1.09993419 0 1 C0 0.67 0 0.34 0 0 Z " fill="#F31553" transform="translate(150,56)"/>
<path d="M0 0 C0 6.07839454 -6.24285316 11.3421255 -10.3125 15.5625 C-13 18 -13 18 -15 18 C-15 18.99 -15 19.98 -15 21 C-13.35 21 -11.7 21 -10 21 C-13.29787288 23.19858192 -16.13806357 24.08315174 -19.9375 25.1875 C-21.16339844 25.55230469 -22.38929688 25.91710937 -23.65234375 26.29296875 C-26.70898753 26.93853762 -28.15430227 27.1197357 -31 26 C-30.33613281 25.76925781 -29.67226562 25.53851563 -28.98828125 25.30078125 C-23.49058475 23.27024517 -19.94156517 21.46019216 -16 17 C-14.73765976 15.92742332 -13.46590088 14.86588255 -12.1875 13.8125 C-7.45821223 9.74080843 -3.75331681 4.9611661 0 0 Z " fill="#F8EB89" transform="translate(179,198)"/>
<path d="M0 0 C1 3 1 3 1 4 C1.66 4.33 2.32 4.66 3 5 C-0.465 6.98 -0.465 6.98 -4 9 C-2.02 9 -0.04 9 2 9 C2 9.33 2 9.66 2 10 C-5.7717081 11.95007216 -13.13848597 12.24572637 -21.125 12.125 C-22.27226562 12.11597656 -23.41953125 12.10695312 -24.6015625 12.09765625 C-27.40126748 12.07432538 -30.20051695 12.04159232 -33 12 C-33 11.67 -33 11.34 -33 11 C-31.87722656 10.96261719 -30.75445312 10.92523438 -29.59765625 10.88671875 C-14.59081242 10.47942725 -14.59081242 10.47942725 -2 3 C-1.34 2.01 -0.68 1.02 0 0 Z " fill="#F2F4F6" transform="translate(156,215)"/>
<path d="M0 0 C0.33 0.66 0.66 1.32 1 2 C0.67 2.99 0.34 3.98 0 5 C-0.66 5 -1.32 5 -2 5 C-2.09796875 5.89203125 -2.1959375 6.7840625 -2.296875 7.703125 C-2.44640625 8.87359375 -2.5959375 10.0440625 -2.75 11.25 C-2.88921875 12.41015625 -3.0284375 13.5703125 -3.171875 14.765625 C-4.09411143 18.36756728 -5.08421 19.75194817 -8 22 C-8.66 22 -9.32 22 -10 22 C-10.18175781 23.26457031 -10.18175781 23.26457031 -10.3671875 24.5546875 C-10.53476562 25.65039062 -10.70234375 26.74609375 -10.875 27.875 C-11.03742187 28.96554688 -11.19984375 30.05609375 -11.3671875 31.1796875 C-12 34 -12 34 -14 36 C-13.88544319 34.08268082 -13.75793742 32.1661325 -13.625 30.25 C-13.55539063 29.18265625 -13.48578125 28.1153125 -13.4140625 27.015625 C-13.0271777 24.19793568 -12.44313834 22.4169634 -11 20 C-10.34 20 -9.68 20 -9 20 C-9 18.35 -9 16.7 -9 15 C-8.01 14.67 -7.02 14.34 -6 14 C-5.9175 12.96875 -5.835 11.9375 -5.75 10.875 C-4.88920962 6.42758305 -3.22813843 3.22813843 0 0 Z " fill="#BC0A8F" transform="translate(67,54)"/>
<path d="M0 0 C0.92868896 -0.00531738 1.85737793 -0.01063477 2.81420898 -0.01611328 C9.55036413 0.05440942 9.55036413 0.05440942 12.9375 2.3125 C12.22730713 2.33231934 11.51711426 2.35213867 10.78540039 2.37255859 C7.5232696 2.46865196 4.26170672 2.5779855 1 2.6875 C-0.67545898 2.73390625 -0.67545898 2.73390625 -2.38476562 2.78125 C-8.17440562 2.984991 -13.59375741 3.40303461 -19.20507812 4.88476562 C-21.8381142 5.49111147 -24.37669992 5.45023334 -27.0625 5.3125 C-18.4632251 0.74475583 -9.57663936 0.02776548 0 0 Z " fill="#F3321D" transform="translate(155.0625,56.6875)"/>
<path d="M0 0 C5.51408969 3.73535108 9.58293347 7.23370023 13 13 C13 14.32 13 15.64 13 17 C11.68 17 10.36 17 9 17 C8.67 16.34 8.34 15.68 8 15 C7.34 14.67 6.68 14.34 6 14 C6.33 13.67 6.66 13.34 7 13 C6.34 12.67 5.68 12.34 5 12 C5 10.35 5 8.7 5 7 C4.401875 6.71125 3.80375 6.4225 3.1875 6.125 C1 5 1 5 -2 3 C-1.34 2.01 -0.68 1.02 0 0 Z " fill="#F31D75" transform="translate(206,59)"/>
<path d="M0 0 C0.66 0 1.32 0 2 0 C0.57391005 4.44032553 -1.84650438 7.41977418 -5 10.75 C-5.48476807 11.27005615 -5.96953613 11.7901123 -6.46899414 12.32592773 C-12.13815827 18.32830138 -18.15830339 24.33718766 -25 29 C-25.66 29 -26.32 29 -27 29 C-25.48677501 25.00330576 -23.10710311 23.41968776 -19.625 21.0625 C-15.6668573 18.37928466 -12.87142993 15.82235803 -10 12 C-8.33333333 10.33333333 -6.66666667 8.66666667 -5 7 C-2.20935253 3.68966618 -2.20935253 3.68966618 0 0 Z " fill="#F6CE1B" transform="translate(214,181)"/>
<path d="M0 0 C7.02338358 0.33444684 12.67438353 0.90173887 19 4 C21.77888613 4.69140522 21.77888613 4.69140522 24 5 C24 5.66 24 6.32 24 7 C24.61875 7.144375 25.2375 7.28875 25.875 7.4375 C28 8 28 8 30 9 C30 9.66 30 10.32 30 11 C31.32 11.66 32.64 12.32 34 13 C29.58329354 13 26.2611079 10.69584966 22.4453125 8.6640625 C17.94090769 6.32411195 13.18013082 4 8 4 C8 3.34 8 2.68 8 2 C5.36 1.67 2.72 1.34 0 1 C0 0.67 0 0.34 0 0 Z " fill="#F73E18" transform="translate(168,59)"/>
<path d="M0 0 C3.74630991 0.65693586 6.44116565 2.34112199 9.625 4.375 C10.58664063 4.98085938 11.54828125 5.58671875 12.5390625 6.2109375 C15 8 15 8 17 11 C15.6875 13 15.6875 13 14 15 C13.01 15 12.02 15 11 15 C10.67 12.03 10.34 9.06 10 6 C8.02 6 6.04 6 4 6 C3.71125 5.38125 3.4225 4.7625 3.125 4.125 C2.06279958 1.86674235 2.06279958 1.86674235 0 0 Z " fill="#F1227A" transform="translate(181,40)"/>
<path d="M0 0 C6.82468952 -0.43331362 12.16262161 0.20218755 18 4 C18.99 5.32 19.98 6.64 21 8 C17.7 7.34 14.4 6.68 11 6 C11 5.01 11 4.02 11 3 C7.06924356 3.57452746 7.06924356 3.57452746 4 6 C3.71125 5.38125 3.4225 4.7625 3.125 4.125 C2.06279958 1.86674235 2.06279958 1.86674235 0 0 Z " fill="#1C34CF" transform="translate(132,185)"/>
<path d="M0 0 C0.66 0 1.32 0 2 0 C-0.80983078 13.15511684 -0.80983078 13.15511684 -5 18 C-5.99 18.33 -6.98 18.66 -8 19 C-8 17.68 -8 16.36 -8 15 C-7.34 15 -6.68 15 -6 15 C-5.9071875 13.7934375 -5.9071875 13.7934375 -5.8125 12.5625 C-4.73463007 7.8364549 -2.48408581 4.12486573 0 0 Z " fill="#F7D866" transform="translate(225,161)"/>
<path d="M0 0 C0.66 0 1.32 0 2 0 C2.26554687 0.86882812 2.53109375 1.73765625 2.8046875 2.6328125 C3.15789062 3.78523437 3.51109375 4.93765625 3.875 6.125 C4.22304687 7.26195312 4.57109375 8.39890625 4.9296875 9.5703125 C5.91496533 12.72751664 6.94272536 15.86627606 8 19 C7.01 19.33 6.02 19.66 5 20 C4.70996094 19.18595703 4.70996094 19.18595703 4.4140625 18.35546875 C4.15367188 17.64003906 3.89328125 16.92460937 3.625 16.1875 C3.24214844 15.12595703 3.24214844 15.12595703 2.8515625 14.04296875 C1.48380439 10.76160412 -0.46397494 8.42075119 -3 6 C-2.01 6 -1.02 6 0 6 C0 4.02 0 2.04 0 0 Z " fill="#DD74B6" transform="translate(76,137)"/>
<path d="M0 0 C0.56332031 0.1546875 1.12664062 0.309375 1.70703125 0.46875 C4.0489676 1.01134513 6.29425677 1.28418419 8.6875 1.5 C13.46535315 1.94725817 18.23155952 2.46162769 23 3 C23 3.33 23 3.66 23 4 C19.20913543 4.22519106 15.41738942 4.42729249 11.625 4.625 C10.54476562 4.68945312 9.46453125 4.75390625 8.3515625 4.8203125 C7.3203125 4.871875 6.2890625 4.9234375 5.2265625 4.9765625 C4.27346191 5.02893066 3.32036133 5.08129883 2.33837891 5.13525391 C0 5 0 5 -2 3 C-1.34 2.01 -0.68 1.02 0 0 Z " fill="#EE0C66" transform="translate(144,52)"/>
<path d="M0 0 C1.85036151 3.15957955 2.25636825 5.48895902 2.265625 9.1328125 C2.26949219 10.58880859 2.26949219 10.58880859 2.2734375 12.07421875 C2.26570312 13.08097656 2.25796875 14.08773437 2.25 15.125 C2.25773438 16.13949219 2.26546875 17.15398437 2.2734375 18.19921875 C2.27085937 19.16730469 2.26828125 20.13539063 2.265625 21.1328125 C2.26336914 22.01855957 2.26111328 22.90430664 2.25878906 23.81689453 C2 26 2 26 0 28 C-0.94512916 18.43238476 -0.94512916 9.56761524 0 0 Z " fill="#EEAE29" transform="translate(193,128)"/>
<path d="M0 0 C6.75 1.75 6.75 1.75 9 4 C9.309375 4.78375 9.61875 5.5675 9.9375 6.375 C10.99016897 8.97571158 12.23678745 10.83605732 14 13 C12.65686601 12.35330586 11.32608822 11.68096422 10 11 C9.195625 10.608125 8.39125 10.21625 7.5625 9.8125 C4.19629913 7.43152866 2.11661328 4.51267736 0 1 C0 0.67 0 0.34 0 0 Z " fill="#AA0485" transform="translate(73,155)"/>
<path d="M0 0 C3 1 6 2 9 3 C9.33 3.99 9.66 4.98 10 6 C11.9843683 7.60374593 14.06817049 8.98314988 16.1875 10.40234375 C18.25739465 12.22688451 18.62831834 13.31111552 19 16 C17.63875 14.7625 17.63875 14.7625 16.25 13.5 C11.93813327 9.76601232 7.19038326 6.78065983 2.37890625 3.734375 C1.59386719 3.16203125 0.80882812 2.5896875 0 2 C0 1.34 0 0.68 0 0 Z " fill="#EB771B" transform="translate(159,72)"/>
<path d="M0 0 C0.66 0 1.32 0 2 0 C2 8.25 2 16.5 2 25 C1.34 25.33 0.68 25.66 0 26 C-0.96541545 22.81445408 -1.05239684 20.11247293 -0.87890625 16.796875 C-0.83056641 15.8171875 -0.78222656 14.8375 -0.73242188 13.828125 C-0.67634766 12.81234375 -0.62027344 11.7965625 -0.5625 10.75 C-0.51029297 9.71875 -0.45808594 8.6875 -0.40429688 7.625 C-0.27484366 5.08300961 -0.13988672 2.54143407 0 0 Z " fill="#5B50FC" transform="translate(49,88)"/>
<path d="M0 0 C0.66 0 1.32 0 2 0 C2.19335938 0.66386719 2.38671875 1.32773438 2.5859375 2.01171875 C4.85997913 9.72319656 7.18341836 15.53564043 12 22 C11.67 22.66 11.34 23.32 11 24 C5.47807379 17.69832053 1.33962102 11.11556042 -1 3 C-0.67 2.01 -0.34 1.02 0 0 Z " fill="#9BA1F7" transform="translate(44,166)"/>
<path d="M0 0 C0.66 0.66 1.32 1.32 2 2 C1.625 4.625 1.625 4.625 1 7 C1.99 7.33 2.98 7.66 4 8 C4.33 8.99 4.66 9.98 5 11 C5.99 11.33 6.98 11.66 8 12 C7.67 13.98 7.34 15.96 7 18 C6.34 18 5.68 18 5 18 C0.85647028 11.74031045 -0.59672183 7.51869512 0 0 Z " fill="#AE0487" transform="translate(56,121)"/>
<path d="M0 0 C3.67229009 3.37453684 6.08948843 6.37455093 8 11 C8 11.99 8 12.98 8 14 C8.66 14 9.32 14 10 14 C10 15.98 10 17.96 10 20 C9.67 19.34 9.34 18.68 9 18 C8.34 18 7.68 18 7 18 C6.61908203 16.89591797 6.61908203 16.89591797 6.23046875 15.76953125 C5.88628906 14.79371094 5.54210937 13.81789063 5.1875 12.8125 C4.85105469 11.84957031 4.51460937 10.88664062 4.16796875 9.89453125 C3.02104583 7.05215705 1.57818238 4.61824526 0 2 C0 1.34 0 0.68 0 0 Z " fill="#F66426" transform="translate(222,94)"/>
<path d="M0 0 C2.64 0 5.28 0 8 0 C7.88637738 1.4800841 7.75877092 2.95910074 7.625 4.4375 C7.55539063 5.26121094 7.48578125 6.08492187 7.4140625 6.93359375 C7.27742188 7.61550781 7.14078125 8.29742187 7 9 C6.01 9.495 6.01 9.495 5 10 C4.16121545 8.71186658 3.32913217 7.41936744 2.5 6.125 C2.0359375 5.40570313 1.571875 4.68640625 1.09375 3.9453125 C0 2 0 2 0 0 Z " fill="#3E4BF2" transform="translate(48,176)"/>
<path d="M0 0 C-4.23353847 4.93912821 -9.12975632 7.32134512 -15 10 C-15.33 9.34 -15.66 8.68 -16 8 C-13.1928292 4.88092134 -10.89328326 3.47313421 -7 2 C-6.67 1.34 -6.34 0.68 -6 0 C-2.49056604 -1.24528302 -2.49056604 -1.24528302 0 0 Z " fill="#E01F4C" transform="translate(114,69)"/>
<path d="M0 0 C2.83339965 -0.02724423 5.66653117 -0.04695589 8.5 -0.0625 C9.29148438 -0.07087891 10.08296875 -0.07925781 10.8984375 -0.08789062 C16.02761717 -0.10891185 20.92336106 0.26062713 26 1 C26 1.66 26 2.32 26 3 C27.32 3.33 28.64 3.66 30 4 C25.84253073 4.14587611 22.74008488 4.21850125 18.71875 3.03125 C14.75913843 1.93320646 11.16015876 1.5925748 7.0625 1.375 C6.37865234 1.33632813 5.69480469 1.29765625 4.99023438 1.2578125 C3.32720487 1.16477588 1.66364153 1.08136213 0 1 C0 0.67 0 0.34 0 0 Z " fill="#F01B3F" transform="translate(150,56)"/>
<path d="M0 0 C1 3 1 3 -0.328125 6.14453125 C-0.95869099 7.37240552 -1.59977508 8.59492197 -2.25 9.8125 C-2.71986328 10.71838867 -2.71986328 10.71838867 -3.19921875 11.64257812 C-3.82249603 12.84387395 -4.4494038 14.04329369 -5.08007812 15.24072266 C-6.42305272 17.80905464 -7.71186119 20.4038437 -9 23 C-9.99 23 -10.98 23 -12 23 C-9.89371689 18.60093995 -7.38385459 14.42658492 -4.921875 10.22070312 C-2.99662704 6.89102988 -1.31728632 3.6156765 0 0 Z " fill="#F6CF1B" transform="translate(187,184)"/>
<path d="M0 0 C2.13487901 0.94883512 4.26941902 1.89833782 6.40234375 2.8515625 C8.11775015 3.6099527 9.83910105 4.35505341 11.56640625 5.0859375 C12.36949219 5.42882812 13.17257813 5.77171875 14 6.125 C15.11375 6.59292969 15.11375 6.59292969 16.25 7.0703125 C18 8 18 8 19 10 C13.90380439 8.51567118 8.92982415 6.97192966 4 5 C2.34080104 4.63128912 0.6752357 4.28718326 -1 4 C-0.67 2.68 -0.34 1.36 0 0 Z " fill="#5C28C8" transform="translate(83,166)"/>
<path d="M0 0 C-5.28540945 4.59661939 -8.94156662 6.74791309 -16 7 C-15 5 -15 5 -12.93359375 4.1484375 C-12.10988281 3.89320313 -11.28617188 3.63796875 -10.4375 3.375 C-9.61121094 3.11460937 -8.78492188 2.85421875 -7.93359375 2.5859375 C-7.29550781 2.39257812 -6.65742188 2.19921875 -6 2 C-6 1.34 -6 0.68 -6 0 C-3.50907189 -1.24546405 -2.58919267 -0.7767578 0 0 Z " fill="#1E38CB" transform="translate(155,218)"/>
<path d="M0 0 C1.65 0 3.3 0 5 0 C0.66666667 4.33333333 -3.66666667 8.66666667 -8 13 C-8 12.01 -8 11.02 -8 10 C-7 9 -6 8 -5 7 C-3.80972016 4.40084462 -3.80972016 4.40084462 -3 2 C-2.01 2 -1.02 2 0 2 C0 1.34 0 0.68 0 0 Z " fill="#EC93C4" transform="translate(97,78)"/>
<path d="M0 0 C0.66 1.32 1.32 2.64 2 4 C1.01 3.34 0.02 2.68 -1 2 C-2.65549531 1.61500109 -4.3222433 1.27206865 -6 1 C-6 1.66 -6 2.32 -6 3 C-7.65 3.66 -9.3 4.32 -11 5 C-10.34 7.64 -9.68 10.28 -9 13 C-9.66 13 -10.32 13 -11 13 C-12.54586876 9.90826248 -12.29359521 7.40570448 -12 4 C-8.92690336 -0.99378204 -5.33129622 -0.35541975 0 0 Z " fill="#C5C5C5" transform="translate(138,119)"/>
<path d="M0 0 C5.54603965 3.7569946 9.38163185 7.34629976 13 13 C12.67 13.66 12.34 14.32 12 15 C11.68546875 14.52949219 11.3709375 14.05898437 11.046875 13.57421875 C6.84465684 7.40948428 6.84465684 7.40948428 0.25 4.3125 C-0.4925 4.209375 -1.235 4.10625 -2 4 C-1.34 2.68 -0.68 1.36 0 0 Z " fill="#F979B4" transform="translate(206,59)"/>
<path d="M0 0 C10.67647059 10.35294118 10.67647059 10.35294118 13 15 C10.25123592 13.83706135 8.13339258 12.35270547 5.875 10.4375 C3.27761964 8.03993582 3.27761964 8.03993582 1 7 C0.59270772 4.67843403 0.25561323 2.3431213 0 0 Z " fill="#ECA6D3" transform="translate(84,156)"/>
<path d="M0 0 C0.33 0.99 0.66 1.98 1 3 C0.01 3.495 0.01 3.495 -1 4 C-0.67 5.98 -0.34 7.96 0 10 C-2.31 9.34 -4.62 8.68 -7 8 C-5.50902342 4.2047869 -3.24299151 2.38957269 0 0 Z " fill="#CD1387" transform="translate(77,44)"/>
<path d="M0 0 C3.38646642 3.87024733 6.32953125 8.10132476 8 13 C7.67 13.99 7.34 14.98 7 16 C5.68 13.36 4.36 10.72 3 8 C2.01 8.33 1.02 8.66 0 9 C-0.33 8.34 -0.66 7.68 -1 7 C-0.34 7 0.32 7 1 7 C0.67 4.69 0.34 2.38 0 0 Z " fill="#FB9CCA" transform="translate(219,74)"/>
<path d="M0 0 C1.95177846 3.90355692 0.14247021 8.91974925 -1 13 C-2.32 13.33 -3.64 13.66 -5 14 C-4.54857225 12.22739369 -4.08859477 10.4569632 -3.625 8.6875 C-3.36976562 7.70136719 -3.11453125 6.71523437 -2.8515625 5.69921875 C-2 3 -2 3 0 0 Z " fill="#9797FA" transform="translate(46,76)"/>
<path d="M0 0 C1.89666526 0.08772455 3.79238993 0.19591301 5.6875 0.3125 C7.27111328 0.39951172 7.27111328 0.39951172 8.88671875 0.48828125 C12.23009964 1.03782064 14.23526262 2.08674018 17 4 C13.67465243 5.10844919 11.37817425 4.84454356 8 4 C8 3.34 8 2.68 8 2 C5.36 1.67 2.72 1.34 0 1 C0 0.67 0 0.34 0 0 Z " fill="#F6430B" transform="translate(168,59)"/>
<path d="M0 0 C0.99 0.33 1.98 0.66 3 1 C1.54634731 2.17249353 0.08692581 3.33783816 -1.375 4.5 C-2.18710938 5.1496875 -2.99921875 5.799375 -3.8359375 6.46875 C-6 8 -6 8 -8 8 C-6.49860488 3.79609368 -3.82724957 2.10889262 0 0 Z " fill="#F6D626" transform="translate(195,202)"/>
<path d="M0 0 C0.66 0 1.32 0 2 0 C2.33 2.64 2.66 5.28 3 8 C2.01 8.33 1.02 8.66 0 9 C-0.99 8.01 -1.98 7.02 -3 6 C-2.01 6 -1.02 6 0 6 C0 4.02 0 2.04 0 0 Z " fill="#DB67B1" transform="translate(76,137)"/>
<path d="M0 0 C2 1 4 2 6 3 C4.6875 5 4.6875 5 3 7 C2.01 7 1.02 7 0 7 C0 4.69 0 2.38 0 0 Z " fill="#F61173" transform="translate(192,48)"/>
<path d="M0 0 C2.61273988 1.30636994 2.97236124 2.28409758 4 5 C4.125 8.25 4.125 8.25 4 11 C2.68 10.34 1.36 9.68 0 9 C0 6.03 0 3.06 0 0 Z " fill="#CB067D" transform="translate(72,109)"/>
<path d="M0 0 C3.80635497 3.20760251 7.54563567 6.40746109 11 10 C10.67 10.66 10.34 11.32 10 12 C8.33333333 10.33333333 6.66666667 8.66666667 5 7 C4.071875 6.113125 3.14375 5.22625 2.1875 4.3125 C0 2 0 2 0 0 Z " fill="#F94E1B" transform="translate(211,80)"/>
<path d="M0 0 C2.475 0.495 2.475 0.495 5 1 C5.33 2.65 5.66 4.3 6 6 C4.125 5.8125 4.125 5.8125 2 5 C0.75 2.4375 0.75 2.4375 0 0 Z " fill="#F70F7A" transform="translate(209,73)"/>
<path d="M0 0 C3.5219721 -0.08004482 6.61981469 -0.04005702 10 1 C10 1.99 10 2.98 10 4 C3.47692308 3.38461538 3.47692308 3.38461538 1.0625 1.4375 C0.711875 0.963125 0.36125 0.48875 0 0 Z " fill="#2639D4" transform="translate(95,217)"/>
<path d="M0 0 C2.475 0.495 2.475 0.495 5 1 C5.79953138 4.28696233 6.09658936 5.71023192 5 9 C4.34 7.02 3.68 5.04 3 3 C2.34 3 1.68 3 1 3 C0.67 2.01 0.34 1.02 0 0 Z " fill="#B5017B" transform="translate(67,146)"/>
<path d="M0 0 C2.64 0.33 5.28 0.66 8 1 C8 1.66 8 2.32 8 3 C8.66 3 9.32 3 10 3 C10 3.66 10 4.32 10 5 C8.51793505 4.745504 7.03931385 4.47088238 5.5625 4.1875 C4.73878906 4.03667969 3.91507813 3.88585937 3.06640625 3.73046875 C2.38449219 3.48941406 1.70257813 3.24835938 1 3 C0.67 2.01 0.34 1.02 0 0 Z " fill="#EC6C1C" transform="translate(148,68)"/>
<path d="M0 0 C1.8125 0.125 1.8125 0.125 4 1 C5.95320589 4.20883825 7 6.2205439 7 10 C5.82739389 8.71372289 4.6620717 7.42080217 3.5 6.125 C2.8503125 5.40570313 2.200625 4.68640625 1.53125 3.9453125 C0 2 0 2 0 0 Z " fill="#7C1BC3" transform="translate(66,148)"/>
<path d="M0 0 C3 1 6 2 9 3 C8.67 3.99 8.34 4.98 8 6 C4.5625 4.6875 4.5625 4.6875 1 3 C0.67 2.01 0.34 1.02 0 0 Z " fill="#EF640E" transform="translate(159,72)"/>
<path d="M0 0 C0.7425 0.0825 1.485 0.165 2.25 0.25 C2.25 0.91 2.25 1.57 2.25 2.25 C-1.71 4.23 -1.71 4.23 -5.75 6.25 C-6.08 5.59 -6.41 4.93 -6.75 4.25 C-3.42692308 0.31153846 -3.42692308 0.31153846 0 0 Z " fill="#D51A60" transform="translate(104.75,72.75)"/>
<path d="M0 0 C1.32 0 2.64 0 4 0 C4 0.66 4 1.32 4 2 C4.928125 2.2165625 4.928125 2.2165625 5.875 2.4375 C8 3 8 3 10 4 C9.67 4.99 9.34 5.98 9 7 C7.4972763 6.02501855 5.99788037 5.04490611 4.5 4.0625 C3.6646875 3.51722656 2.829375 2.97195312 1.96875 2.41015625 C1.3190625 1.94480469 0.669375 1.47945313 0 1 C0 0.67 0 0.34 0 0 Z " fill="#F51E44" transform="translate(198,69)"/>
<path d="M0 0 C1.4391134 0.28359887 2.87625518 0.57721399 4.3125 0.875 C5.11300781 1.03742187 5.91351563 1.19984375 6.73828125 1.3671875 C9 2 9 2 12 4 C7.06729471 5.6442351 4.45975807 4.18615592 0 2 C0 1.34 0 0.68 0 0 Z " fill="#EE1C75" transform="translate(160,31)"/>
<path d="M0 0 C5.01113235 1.4317521 6.94469549 3.98445693 10 8 C6.88349604 6.49946106 3.86850702 4.93818042 1 3 C0.67 2.01 0.34 1.02 0 0 Z " fill="#7E14B6" transform="translate(77,160)"/>
<path d="M0 0 C3 1 3 1 4.1875 3.25 C4.99938294 5.99791147 5.16260121 8.15447889 5 11 C2.03947516 7.63576723 1.07710178 4.30840713 0 0 Z " fill="#EB2A5D" transform="translate(226,97)"/>
<path d="M0 0 C0 3 0 3 -2 6 C-2 6.66 -2 7.32 -2 8 C-2.99 8.33 -3.98 8.66 -5 9 C-4.50769231 3.46153846 -4.50769231 3.46153846 -1.9375 1.125 C-1.298125 0.75375 -0.65875 0.3825 0 0 Z " fill="#5F5FFA" transform="translate(44,88)"/>
<path d="M0 0 C2.31 0.33 4.62 0.66 7 1 C3.81237635 3.12508244 1.73487777 3.5020163 -2 4 C-1.34 2.68 -0.68 1.36 0 0 Z " fill="#EE5729" transform="translate(114,68)"/>
<path d="M0 0 C0.66 0 1.32 0 2 0 C2 0.99 2 1.98 2 3 C2.66 3.33 3.32 3.66 4 4 C4.33 4.99 4.66 5.98 5 7 C2.525 6.01 2.525 6.01 0 5 C0 3.33333333 0 1.66666667 0 0 Z " fill="#8B95F0" transform="translate(75,204)"/>
<path d="M0 0 C6.625 0.75 6.625 0.75 10 3 C7.69 3.33 5.38 3.66 3 4 C3 3.34 3 2.68 3 2 C2.01 1.67 1.02 1.34 0 1 C0 0.67 0 0.34 0 0 Z " fill="#384ADF" transform="translate(108,180)"/>
<path d="M0 0 C0.99 0.33 1.98 0.66 3 1 C2.67 2.98 2.34 4.96 2 7 C1.34 7 0.68 7 0 7 C-0.38133299 5.0085944 -0.71325582 3.00720923 -1 1 C-0.67 0.67 -0.34 0.34 0 0 Z " fill="#BB0176" transform="translate(61,132)"/>
<path d="M0 0 C1 3 1 3 0.3125 5.125 C-1 7 -1 7 -3.125 7.75 C-4.053125 7.87375 -4.053125 7.87375 -5 8 C-1.125 1.125 -1.125 1.125 0 0 Z " fill="#6C6BF8" transform="translate(54,66)"/>
<path d="M0 0 C2.89932357 2.39509338 3.50168276 4.31245243 4 8 C2.35 6.68 0.7 5.36 -1 4 C-0.67 2.68 -0.34 1.36 0 0 Z " fill="#C6007C" transform="translate(78,151)"/>
<path d="M0 0 C2.5 2.3125 2.5 2.3125 5 5 C5 5.99 5 6.98 5 8 C2.20127563 5.47211993 0.54226981 3.79588866 0 0 Z " fill="#F9581A" transform="translate(222,94)"/>
<path d="M0 0 C0.99 0 1.98 0 3 0 C3 1.98 3 3.96 3 6 C2.01 5.67 1.02 5.34 0 5 C-0.33 4.01 -0.66 3.02 -1 2 C-0.67 1.34 -0.34 0.68 0 0 Z " fill="#5659FE" transform="translate(49,80)"/>
<path d="M0 0 C0.33 0.66 0.66 1.32 1 2 C0.67 2.99 0.34 3.98 0 5 C-0.66 5 -1.32 5 -2 5 C-2.66 6.32 -3.32 7.64 -4 9 C-4 5.28703828 -2.65223411 2.65223411 0 0 Z " fill="#B314B0" transform="translate(67,54)"/>
</svg>
